<svg xmlns="http://www.w3.org/2000/svg" width="1280" height="760" viewBox="0 0 1280 760">
<title>RetroInfer Figure 13 single-GPU reproduction</title>
<g font-family="DejaVu Sans, Arial, sans-serif">
<rect x="0.000" y="0.000" width="1280.000" height="760.000" fill="#FFFFFF" stroke="none" />
<text x="640.000" y="38.000" font-size="25.000" text-anchor="middle" fill="#111111">Decode throughput</text>
<text x="640.000" y="68.000" font-size="15.000" text-anchor="middle" fill="#444444">Measured context/batch groups at cache ratios 0.5%, 5%, and 10%</text>
<text x="105.000" y="105.000" font-size="16.000" text-anchor="start" fill="#111111">Decode throughput (tokens/s)</text>
<line x1="105.000" y1="650.000" x2="1225.000" y2="650.000" stroke="#222222" stroke-width="1.400" stroke-linecap="round" />
<line x1="105.000" y1="130.000" x2="105.000" y2="650.000" stroke="#222222" stroke-width="1.400" stroke-linecap="round" />
<line x1="105.000" y1="650.000" x2="1225.000" y2="650.000" stroke="#E2E2E2" stroke-width="1.000" stroke-linecap="round" />
<text x="95.000" y="655.000" font-size="12.000" text-anchor="end" fill="#333333">0</text>
<line x1="105.000" y1="520.000" x2="1225.000" y2="520.000" stroke="#E2E2E2" stroke-width="1.000" stroke-linecap="round" />
<text x="95.000" y="525.000" font-size="12.000" text-anchor="end" fill="#333333">50</text>
<line x1="105.000" y1="390.000" x2="1225.000" y2="390.000" stroke="#E2E2E2" stroke-width="1.000" stroke-linecap="round" />
<text x="95.000" y="395.000" font-size="12.000" text-anchor="end" fill="#333333">100</text>
<line x1="105.000" y1="260.000" x2="1225.000" y2="260.000" stroke="#E2E2E2" stroke-width="1.000" stroke-linecap="round" />
<text x="95.000" y="265.000" font-size="12.000" text-anchor="end" fill="#333333">150</text>
<line x1="105.000" y1="130.000" x2="1225.000" y2="130.000" stroke="#E2E2E2" stroke-width="1.000" stroke-linecap="round" />
<text x="95.000" y="135.000" font-size="12.000" text-anchor="end" fill="#333333">200</text>
<line x1="665.000" y1="650.000" x2="665.000" y2="656.000" stroke="#222222" stroke-width="1.200" stroke-linecap="round" />
<text x="665.000" y="675.000" font-size="12.000" text-anchor="middle" fill="#333333">0.05</text>
<text x="665.000" y="708.000" font-size="14.000" text-anchor="middle" fill="#222222">cache_ratio</text>
<circle cx="665.000" cy="132.610" r="7.000" fill="#0072B2" stroke="#FFFFFF" stroke-width="1.200" />
<line x1="115.000" y1="92.000" x2="149.000" y2="92.000" stroke="#0072B2" stroke-width="4.000" stroke-linecap="round" />
<circle cx="132.000" cy="92.000" r="6.000" fill="#0072B2" stroke="#FFFFFF" stroke-width="1.000" />
<text x="159.000" y="97.000" font-size="13.000" text-anchor="start" fill="#222222">ctx 120K, bsz 8</text>
</g>
</svg>
